<!--?xml version="1.0" encoding="utf-8"?-->
<!-- Generator: Adobe Illustrator 24.0.2, SVG Export Plug-In . SVG Version: 6.00 Build 0)  -->

<svg version="1.1" id="Capa_1" xmlns="http://www.w3.org/2000/svg" xmlns:xlink="http://www.w3.org/1999/xlink" x="0px" y="0px" viewBox="0 0 1200 1200" enable-background="new 0 0 1200 1200" xml:space="preserve">
<g>
	<path fill="#e7e5e4" d="M1072.256,388.753l-18.404-7.847c-0.038-0.534-0.418-50.781-0.519-51.255
		c-0.113-3.112-1.783-5.966-4.51-7.508L607.558,72.712c0.417-11.315-137.512,78.225-139.813,77.221l-251.21-99.255
		c-7.111-3.075-14.882,4.901-11.543,11.934c15.14,34.761,44.159,101.94,59.014,136.009L163.9,271.974
		c-2.812,2.058-4.181,5.559-3.51,8.977c0.671,3.422,3.26,6.142,6.643,6.989l46.876,11.712c-0.165,0.071-51.979,30.713-52.149,30.736
		c-2.743,1.641-4.41,4.607-4.379,7.801l1.532,164.582c-11.929,7.897-32.372,14.902-36.652,29.303
		c0.003,0.002,6.426,248.179,6.426,248.179c3.284,19.686,16.067,36.83,33.252,46.48c1.235,5.2-2.181,20.915,2.848,24.603
		c0.601,1.521,441.757,249.699,443.14,250.896c2.78,1.593,6.331,1.585,9.077-0.117l89.938-53.039
		c12.314,4.275,237.347,94.942,257.204,100.92c6.2,0.193,10.944-6.879,8.244-12.563c0,0-59.014-136.009-59.014-136.009
		c24.495-17.939,75.378-55.183,100.107-73.309c6.107-4.167,4.083-14.447-3.164-15.974c0,0-50.208-12.347-50.208-12.347l93.56-55.202
		c1.349-0.856,2.482-1.993,3.289-3.373c0.76-1.356,1.076-2.922,1.142-4.467c0,0-1.323-142.02-1.323-142.02
		c3.907-2.518,7.767-5.087,11.484-7.735c3.712-2.922,9.881-5.792,9.454-11.39c0,0.001,0-253.384,0-253.384v-1.619v-23.587
		C1077.718,393.416,1075.568,390.165,1072.256,388.753z M498.918,415.062l-154.82,1.423l258.963-321.59L855.21,411.785
		L498.918,415.062z M327.12,446.416l21.458,35.93l-34.7,0.1L327.12,446.416z M369.47,482.285l-28.545-47.798l517.582-4.761
		l-27.911,51.226L369.47,482.285z M872.669,441.287l16.639,39.496l-38.218,0.111L872.669,441.287z M908.633,480.34l-23.453-55.653
		l150.358-79.83c0.214,22.334,0.643,68.022,0.852,90.484C999.89,462.001,955.113,477.737,908.633,480.34z M1025.706,329.72
		l-149.614,79.442c-53.345-67.041-182.51-229.371-237.191-298.092L1025.706,329.72z M515.328,175.194L322.92,414.126
		c-33.594-18.512-105.337-58.05-138.397-76.276c30.252-17.817,341.601-201.491,380.617-224.516L515.328,175.194z M175.496,353.406
		c34.309,18.903,104.129,57.385,138.589,76.382l-19.371,52.713c-36.744,0.195-83.71-2.614-117.903,12.366L175.496,353.406z
		 M1038.905,705.283l0.801,86.09l-30.49-72.349C1019.374,715.009,1029.31,710.452,1038.905,705.283z M601.659,911.445l1.575,167.488
		L216,860.035L601.659,911.445z M992.286,725.118l44.068,104.572l-409.209,62.253l83.3-152.896
		C774.167,736.173,933.261,748.549,992.286,725.118z M610.229,885.427l-87.418-146.381h167.171L610.229,885.427z M501.869,739.046
		l91.438,153.137L183.4,837.547l30.859-83.964C262.596,727.847,447.301,742.716,501.869,739.046z M934.218,894.204
		c-10.13,5.921-303.81,179.161-312.999,184.568l-1.571-167.497l384.876-58.552L934.218,894.204z M1059.747,670.993
		c-44.991,32.876-100.269,50.153-156.121,50.082c0,0-615.182,0-615.182,0c-49.761,0.216-98.821,16.457-135.026,50.288l-6.989-0.149
		l-6.09-235.212c42.745-37.936,107.398-36.83,161.147-35.546c-0.001-0.003,594.264-1.72,594.264-1.72
		c60.402-0.254,118.904-20.997,163.996-58.83V670.993z M484.22,584.802v13.332c22.293-0.035,22.595,0.267,25.097,3.436
		c7.802,16.785-10.456,14.717-25.097,14.533v12.503c0,0,24.249,0,24.248,0c11.665-0.16,11.65,18.124,0.001,17.971h-33.234
		c-4.962,0-8.985-4.023-8.985-8.985v-61.774c0-4.962,4.023-8.985,8.985-8.985c0,0,33.234,0,33.234,0
		c11.665-0.185,11.65,18.16,0.001,17.971H484.22z M897.802,585.063c0,0,0,12.78,0,12.781c7.792,0.773,15.683,0.042,19.569,0.327
		c10.83-0.629,11.986,17.787,0.974,17.915c-6.244,0.246-15.487-0.505-20.544,0.26c0.24,0.262-0.469,12.313,0.262,12.259
		c0,0,23.987,0,23.987,0c12.049-0.008,11.402,18.452-0.69,17.971h-32.281c-5.107,0-9.247-4.14-9.247-9.247v-61.251
		c0-5.107,4.14-9.247,9.247-9.247c0,0,32.281,0,32.281,0c12.11-0.519,12.723,18.013,0.692,17.97
		C921.738,585.061,897.815,584.305,897.802,585.063z M279.874,607.155c0,0,0,23.336,0.001,23.338
		c-2.094,12.163-17.774,15.605-29.69,16.122c-23.131,0.391-42.603-16.811-41.942-41.609c-0.96-50.403,79.152-48.462,69.38-20.745
		c-2.694,4.168-8.253,5.366-12.419,2.68c-47.918-23.706-53.685,57.075-3.301,39.052v-9.854c0,0-11.359,0-11.358,0
		c-11.659,0.172-11.658-18.141-0.001-17.971h20.344C275.85,598.17,279.874,602.193,279.874,607.155z M444.269,575.435
		c0,0,0,62.156,0,62.155c0.171,11.668-18.14,11.647-17.971,0.001v-34.897c-15.654,22.634-18.316,23.379-34.09,0.18
		c0,0,0,34.717,0,34.717c0.171,11.672-18.14,11.64-17.971,0.001v-62.156c0-3.883,2.496-7.331,6.191-8.538
		c3.677-1.211,7.739,0.092,10.038,3.225l18.712,25.5l18.879-25.53c2.308-3.119,6.353-4.414,10.038-3.19
		C441.781,568.116,444.269,571.556,444.269,575.435z M628.473,575.435c0,0,0,62.156,0,62.155
		c0.171,11.668-18.14,11.647-17.971,0.001v-34.897c-15.651,22.629-18.317,23.384-34.086,0.18c0,0,0,34.717,0,34.717
		c0.171,11.672-18.14,11.64-17.971,0.001v-62.156c0-3.887,2.496-7.331,6.191-8.538c3.672-1.211,7.744,0.092,10.038,3.225
		l18.708,25.5l18.879-25.53c2.308-3.119,6.353-4.414,10.038-3.19C625.986,568.116,628.473,571.556,628.473,575.435z
		 M994.087,630.018c-1.248-4.575-0.87-16.435-5.428-20.469c13.589-17.494,3.862-43.155-21.597-42.783
		c-7.496,0.709-25.677-3.542-25.39,8.985c-0.001,0-0.001,61.84-0.001,61.84c0,4.962,4.024,8.985,8.985,8.985
		c13.089,0.342,8.073-20.027,8.985-27.64c3.12-0.053,8.327,0.239,12.208-0.177c2.837,0.92,3.367,2.37,3.367,4.946
		C974.177,657.687,1010.197,647.592,994.087,630.018z M968.514,600.996c-3.528,0-6.467-0.013-8.872-0.031v-16.229
		c4.668,0.3,11.491-1.163,15.33,2.479C979.072,592.455,976.619,600.476,968.514,600.996z M763.634,646.576
		c-8.331,0.422-42.877-8.358-33.447-25.383c10.334-11.624,23.722,14.816,41.179,5.86c11.106-6.602,2.813-11.555-10.946-14.354
		c-24.754-3.148-43.912-26.99-16.732-44.614c11.143-7.41,53.15-3.943,44.442,16.795c-2.909,4.019-8.529,4.914-12.548,1.992
		c-7.437-5.396-18.107-5.633-23.732-2.777c-8.744,6.266,2.523,8.063,13.062,11.205C804.715,599.994,804.372,644.317,763.634,646.576
		z M860.211,584.736h-14.47v52.855c0,4.962-4.023,8.985-8.985,8.985s-8.985-4.023-8.985-8.985v-52.855c0,0-14.465,0-14.464,0
		c-11.661,0.172-11.656-18.141-0.001-17.971h46.906C871.868,566.592,871.869,584.908,860.211,584.736z M358.614,634.397
		l-23.455-61.629c-2.599-7.568-14.166-7.6-16.786-0.026c0,0-23.661,61.629-23.661,61.629c-4.323,10.8,12.734,17.406,16.778,6.44
		c0,0.001,4.695-12.227,4.695-12.227c5.371,0.124,14.174,0.1,21.023,0.084c2.722,6.71,5.752,21.605,16.204,17.32
		C358.053,644.224,360.378,639.034,358.614,634.397z M319.131,616.482l7.615-19.833l7.54,19.812
		C329.091,616.47,323.951,616.477,319.131,616.482z M710.254,634.397l-23.455-61.629c-2.599-7.568-14.165-7.6-16.786-0.026
		c0,0-23.661,61.629-23.661,61.629c-4.322,10.799,12.731,17.406,16.778,6.44c0,0.001,4.649-12.108,4.649-12.108
		c5.601,0,14.868-0.021,21.068-0.036c2.722,6.71,5.752,21.605,16.204,17.321C709.693,644.224,712.018,639.034,710.254,634.397z
		 M670.087,616.546l8.304-21.625l8.217,21.591C681.11,616.525,675.452,616.537,670.087,616.546z" style="fill: rgb(0, 0, 0);"></path>
</g>
</svg>