<!--?xml version="1.0" encoding="utf-8"?-->
<!-- Generator: Adobe Illustrator 24.0.2, SVG Export Plug-In . SVG Version: 6.00 Build 0)  -->
<svg version="1.1" id="Capa_1" xmlns="http://www.w3.org/2000/svg" xmlns:xlink="http://www.w3.org/1999/xlink" x="0px" y="0px" viewBox="0 0 1200 1200" enable-background="new 0 0 1200 1200" xml:space="preserve">
<g>
	<path fill="#39316E" d="M897.053,668.172c1.117-299.741-401.013-407.843-552.243-151.738
		c-101.295,150.573-7.774,392.164,168.33,435.601C691.892,1016.338,906.523,855.922,897.053,668.172z M606.945,378.386
		c43.842,25.82,88.179,51.985,132.45,78.109c37.324,22.042,74.49,43.926,111.451,65.759c-1.346-0.327-2.81-0.188-4.123,0.536
		l-86.341,47.594c-0.013-0.011-153.633-191.986-153.654-191.997H606.945z M838.979,810.02l-230.807,32.136l150.457-250.793
		L838.979,810.02z M602.283,391.198l144.299,180.311l-286.519-2.635L602.283,391.198z M348.316,519.722l2.267-1.283
		c0.308-0.175,0.53-0.451,0.642-0.768c81.955-45.108,164.369-92.882,246.08-138.623L446.551,567.384l-89.823-48.424
		c-2.791-1.506-6.274-0.462-7.777,2.327c-1.502,2.791-0.46,6.272,2.329,7.775l89.973,48.506l-95.592,228.499
		C346.554,711.097,347.482,614.398,348.316,519.722z M449.59,587.382l138.714,254.611l-229.838-36.794L449.59,587.382z
		 M591.395,956.963c-79.3-46.804-159.964-94.404-239.293-141.158l240.145,38.444C592.344,855.799,591.086,955.488,591.395,956.963z
		 M598.287,836.322L458.824,580.342l291.424,2.68L598.287,836.322z M602.511,957.546c0.15-0.503,0.256-1.023,0.262-1.574
		l0.951-101.61l240.716-33.516L602.511,957.546z M851.855,811.788l-85.17-231.773l85.58-47.173c0.959-0.529,1.691-1.302,2.197-2.189
		C853.612,624.181,852.757,718.394,851.855,811.788z M854.513,525.033c-0.22-0.397-0.489-0.747-0.781-1.069l0.787,0.466
		L854.513,525.033z M575.493,636.438c19.882,5.569,21.406,26.148,9.633,39.951c-0.334,0.429-15.924,14.535-16.295,14.973
		c0,0,17.229,0,17.228,0c7.453-0.102,7.438,11.576,0.001,11.479c0,0-31.975,0-31.975,0c-5.08,0.174-7.734-6.665-3.879-9.968
		c0,0,26.662-24.459,26.662-24.459c5.865-6.967,6.329-18.167-4.05-20.81c-16.352-3.002-11.372,10.163-21.853,5.885
		C542.765,647.838,555.753,632.287,575.493,636.438z M622.027,635.659c-31.938,0.206-31.932,66.946,0.001,67.145
		C653.972,702.599,653.965,635.857,622.027,635.659z M622.027,691.325c-16.678-0.763-16.668-43.436,0.001-44.188
		C638.711,647.902,638.701,690.572,622.027,691.325z M624.189,1036.03c0,0-4.882-11.706-4.882-11.706
		c0.041-0.029-12.844-30.699-12.82-30.736c-1.752-4.622-8.837-4.635-10.59-0.005c-0.013,0.016-12.807,30.633-12.819,30.652
		l-4.931,11.79c-2.972,6.814,7.82,11.349,10.588,4.427c0,0,3.447-8.243,3.447-8.243l17.996,0.043l3.419,8.195
		C616.403,1047.386,627.147,1042.84,624.189,1036.03z M596.977,1020.742l4.204-10.053l4.202,10.073L596.977,1020.742z
		 M502.157,1022.206c-0.013-0.032-1.236-12.637-1.246-12.664l-3.257-33.101c-0.326-4.927-7.088-7.022-10.125-3.105
		c0,0-21.201,25.521-21.201,25.521c-0.032,0.038-8.162,9.826-8.196,9.867c-4.838,5.651,4.153,13.139,8.828,7.336
		c0,0,5.712-6.876,5.712-6.876l17.193,5.308l0.87,8.84C491.376,1030.768,502.995,1029.596,502.157,1022.206z M480.615,999.623
		l6.962-8.38l1.069,10.86L480.615,999.623z M431.725,387.139c-0.078-0.058-10.141-7.59-10.213-7.644c0,0-26.604-19.91-26.604-19.91
		c-3.854-3.09-9.968,0.501-9.124,5.379c0,0,6.286,45.575,6.286,45.575c0.398,2.874,2.856,4.955,5.678,4.955
		c8.28-0.198,5.038-10.373,4.473-15.378l15.517-9.109l7.111,5.322C430.73,400.872,437.763,391.516,431.725,387.139z
		 M400.522,387.803l-1.489-10.794l8.737,6.539L400.522,387.803z M473.764,343.358c-13.193-23.805-32.518-14.553-48.15-5.126
		c-2.806,1.476-3.882,4.946-2.405,7.75l19.765,37.559c4.069,8.089,16.457-3.187,21.635-4.898
		C475.397,372.965,482.005,359.022,473.764,343.358z M459.261,368.485c0-0.001-8.802,4.633-8.802,4.633l-14.421-27.402l8.623-4.537
		C458.672,332.014,475.472,359.959,459.261,368.485z M786.676,352.404c1.422-2.739,5.098-3.828,7.785-2.304
		c0,0,21.393,11.623,21.393,11.623c6.604,3.461,1.001,13.737-5.481,10.086l-16.349-8.882l-4.475,8.237
		c4.035,3.137,19.724,7.102,15.277,14.829c-4.118,7.937-15.876-3.054-20.756-4.743l-4.826,8.884c0,0,16.352,8.883,16.351,8.883
		c5.227,2.612,2.962,10.997-2.746,10.784c-1.07,0.946-22.679-11.794-24.128-12.321c-2.786-1.513-3.814-4.997-2.304-7.782
		l10.303-18.968C776.724,370.729,786.672,352.407,786.676,352.404z M529.043,308.627c-0.367-3.148,1.892-5.997,5.039-6.363
		c0,0,24.184-2.805,24.184-2.805c7.399-0.941,8.721,10.646,1.323,11.403l-18.484,2.144l1.08,9.311
		c5.105,0.24,20.2-5.529,21.025,3.339c1.226,8.841-14.752,6.646-19.703,8.063l1.165,10.044c0,0,18.484-2.144,18.484-2.144
		c7.375-0.938,8.733,10.644,1.323,11.403c0,0-24.187,2.804-24.187,2.804c-3.09,0.375-6.009-1.878-6.361-5.04L529.043,308.627z
		 M647.236,1035.052c1.244,7.328-10.29,9.141-11.344,1.752c0,0-6.476-41.949-6.476-41.948c-1.244-7.348,10.306-9.114,11.344-1.752
		C640.759,993.104,647.236,1035.052,647.236,1035.052z M580.5,346.717c0,0-0.796-42.435-0.796-42.435
		c-0.277-5.386,7.174-7.971,10.301-3.59l21.304,27.92c0,0-0.468-24.914-0.468-24.914c-0.249-7.453,11.524-7.689,11.479-0.216
		c0,0,0.796,42.435,0.796,42.435c0.277,5.388-7.175,7.969-10.301,3.59l-21.304-27.92l0.468,24.914
		c0.063,3.208-2.534,5.85-5.742,5.847C583.117,352.348,580.559,349.849,580.5,346.717z M756.437,331.212
		c-4.605-1.386-14.413-8.336-17.261-0.837c0,0-16.041,39.36-16.041,39.36c-1.194,2.935,0.216,6.284,3.15,7.481
		c8.227,3.557,10.465-12.72,13.196-17.171c0.333,0.141,0.622,0.266,0.838,0.364c1.37,4.328,6.804,21.246,7.482,23.359
		c0.962,3.044,4.283,4.676,7.219,3.709c9.215-4.135-1.061-17.419-1.754-24.255C772.007,361.918,773.582,336.126,756.437,331.212z
		 M753.417,351.631c-2.9,0.903-6.895-1.125-9.604-2.221l3.828-9.388c2.582,1.087,7.61,2.745,8.979,4.918
		C758.329,346.549,756.195,351.441,753.417,351.631z M636.634,300.045c8.065,0.748,24.3,2.259,32.364,3.006
		c7.119,0.518,6.549,11.599-0.523,11.453c-0.177,0-0.356-0.008-0.535-0.025l-10.414-0.967c0,0-3.393,36.547-3.393,36.547
		c-0.279,3.163-3.137,5.487-6.244,5.183c-3.158-0.293-5.479-3.088-5.184-6.245l3.393-36.547l-10.522-0.977
		C628.139,310.895,629.245,299.252,636.634,300.045z M686.343,990.324l-10.282,1.902l6.678,36.089
		c0.577,3.119-1.482,6.112-4.599,6.689c-3.044,0.582-6.125-1.463-6.689-4.599l-6.679-36.091c-0.544,0.045-11.165,2.188-11.438,2.017
		c-6.749,0.18-7.779-10.304-1.04-11.383c7.973-1.476,23.985-4.436,31.958-5.913C691.554,977.577,693.685,989.076,686.343,990.324z
		 M687.979,312.956l0.237,0.06c3.011,0.769,4.829,3.833,4.06,6.844l-5.115,20.036c-1.567,6.126,0.167,11.531,6.417,13.107
		c6.731,1.725,10.562-3.266,11.79-8.061l5.14-20.131c0.769-3.011,3.833-4.828,6.844-4.06l0.233,0.059
		c2.982,0.761,4.78,3.769,4.078,6.766c-4.09,17.478-8.048,42.039-30.927,36.55c-22.777-5.876-14.346-30.03-9.58-47.189
		C681.98,313.973,684.999,312.195,687.979,312.956z M473.859,323.822c-4.882-5.623,4.062-13.163,8.777-7.396l20.777,24.664
		c0,0,2.94-32.125,2.94-32.124c0.527-7.425,12.222-6.357,11.428,1.045c0,0-4.19,45.81-4.19,45.81
		c-0.289,4.936-7.024,7.065-10.102,3.175C503.488,358.995,473.859,323.822,473.859,323.822z M579.236,996.663
		c0,0-19.673,40.225-19.673,40.225c-2.222,4.914-9.986,3.828-10.8-1.474l-5.235-28.192c0,0-13.378,25.395-13.378,25.395
		c-2.358,4.838-10.087,3.529-10.747-1.785c0,0-6.964-44.241-6.964-44.24c-1.265-7.342,10.268-9.145,11.338-1.783l4.276,27.161
		l13.023-24.717c1.138-2.161,3.523-3.352,5.938-2.999c2.418,0.367,4.335,2.225,4.784,4.627l5.081,27.365l12.045-24.627
		c1.396-2.844,4.831-4.016,7.678-2.634C579.449,990.377,580.629,993.815,579.236,996.663z M719.537,1024.324
		c-18.777,0.015-15.237-18.147-4.081-12.568c4.62,3.163,13.637-0.965,11.686-6.522c-2.145-7.75-21.649,3.388-26.984-14.077
		c-5.201-15.75,17.243-25.013,26.305-17.69c6.196,3.992-0.132,13.665-6.271,9.612c-0.21-0.12-2.242-1.202-5.073-0.337
		c-6.322,2.566-6.323,8.8,4.958,7.968C745.712,988.305,743.977,1024.719,719.537,1024.324z M357.051,402.256l13.729-9.482
		c2.609-1.805,6.185-1.148,7.984,1.46c1.802,2.609,1.149,6.183-1.46,7.984l-13.729,9.482c-0.995,0.688-2.133,1.017-3.256,1.017
		C354.915,412.927,352.403,405.225,357.051,402.256z M819.054,392.772l13.732,9.482c2.606,1.802,3.262,5.376,1.46,7.984
		c-1.812,2.628-5.405,3.248-7.984,1.463l-13.732-9.482c-2.606-1.802-3.262-5.376-1.46-7.984
		C812.87,391.626,816.437,390.972,819.054,392.772z M452.275,993.675c-1.51-0.608-16.94-6.527-27.118-10.422
		c-2.962-1.135-4.442-4.453-3.309-7.412c2.984-8.393,16.106,0.909,21.104,1.939c16.436,6.308,16.436,6.308,17.195,9.186
		C461.478,991.47,456.481,995.683,452.275,993.675z M778.297,983.204c-8.042,2.357-29.365,13.574-32.561,10.079
		c-4.036-2.423-3.131-8.945,1.309-10.265c1.527-0.563,16.935-6.555,27.088-10.509C781.032,969.697,785.268,980.608,778.297,983.204z
		 M892.326,955.817c178.996-173.084,147.008-494.655-63.957-628.204l21.615-30.979c24.291,16.248,52.177,41.314,50.663,49.574
		c0.123,1.957,0.859,4.79,2.824,5.913c2.486,1.766,6.065,1.105,7.854-1.335c46.143-65.328,47.201-40.429-38.076-71.909
		l-9.304-26.956l60.758-86.981c2.036,0.944,22.977,4.459,25.162,3.949c0.491-0.45,37.106-14.241,36.137-15.195
		c0-0.003,0-0.006,0.006-0.008c0,0,0-0.001,0.003-0.003c-0.003-0.007,0.006-0.007,0.006-0.007c0.01-0.016,0.025-0.029,0.034-0.046
		c0.006-0.004,0.008-0.01,0.011-0.014l0.003-0.001c0-0.001,0-0.003,0.003-0.004c0-0.014,0.006-0.007,0.006-0.008
		c-0.003-0.004,0.006-0.004,0.006-0.007c0.033,0.059,12.101-17.26,12.148-17.254c0.387-0.55,0.639-1.183,0.74-1.849l4.907-33.23
		c1.02-0.535-8.331-21.592-8.564-22.688c0-0.001,0-0.001,0-0.001c0-0.003,0-0.006-0.003-0.008c-0.003-0.008-0.006-0.014-0.006-0.015
		l-0.003-0.001c0-0.003,0-0.006-0.003-0.007c-0.001-0.002-0.004-0.013-0.006-0.015c0.003-0.006-0.003-0.006-0.006-0.01
		c0.001-0.004-0.003-0.005-0.003-0.008c0,0,0,0,0-0.001c-0.502-1.552-32.304-25.511-33.945-25.581c-0.004,0-0.013-0.002-0.017-0.001
		c0-0.001-20.143-2.771-20.143-2.773c0.022-1.737-31.129,11.979-31.963,12.029c-1.298-0.142-13.482,16.724-14.595,17.772
		c-1.355-0.073-6.37,39.226-6.779,40.261c-0.297,1.674,8.276,21.66,9.054,23.224l-63.314,86.652l-28.508-0.24l-41.057-55.575
		c-2.254-3.11-7.133-3.056-9.276,0.06c0,0-30.588,42.55-30.588,42.55c-1.919,2.753-3.046,6.455-0.215,9.088
		c2.172,2.095,5.571,2.131,7.793,0.155c3.357-2.954,26.569,3.151,64.265,31.657l-25.943,37.223
		c-105.517-48.687-233.31-49.175-338.848-0.546l-26.098-37.408c38.668-29.537,62.165-32.958,66.23-29.252
		c1.957,1.895,5.133,2.129,7.349,0.543c2.515-1.791,3.123-5.504,1.311-8.011c0,0-33.603-46.746-33.603-46.746
		c-2.131-3.116-7.047-3.154-9.276-0.061c0,0-41.083,55.576-41.083,55.576l-28.483,0.24l-62.696-85.807
		c0.935-1.601,9.424-21.562,9.183-23.353c0.22-0.401-5.992-37.726-5.922-38.143c-0.104-0.77-0.415-1.485-0.88-2.079l-12.594-16.119
		c1.663-0.875-30.906-13.144-31.246-13.512c-1.192-1.031-21.202,2.638-22.985,2.613c-0.706,0.117-1.382,0.409-1.962,0.867
		l-30.392,22.923c-1.369-0.327-9.068,21.255-9.783,22.283c-1.482-0.099,4.857,34.356,4.607,35.475
		c-0.674,0.715,12.465,18.115,12.844,19.005c0.149,2.033,34.309,14.014,35.947,15.295c2.351,0.842,22.997-2.977,25.343-3.756
		l60.171,86.14l-9.304,26.957l-65.769,21.243c-3.621,1.067-5.188,5.808-2.895,8.815c0,0,33.631,46.717,33.631,46.717
		c1.077,1.462,2.838,2.374,4.662,2.386c0,0,0.001,0,0.001,0c15.776-3.349-16.157-13.826,53.63-61.411l21.634,31.014
		c-211.97,133.617-244.876,456.43-64.06,629.783c-1.224,2.456-72.823,103.265-73.482,105.888
		c-0.052,0.209-22.576,77.87-22.605,78.06c-1.144,2.84-1.227,6.446,1.614,8.318c1.992,1.408,4.655,1.406,6.641-0.008l68.327-48.613
		c2.282-1.384,68.452-98.333,70.191-100.111c139.094,103.918,343.57,103.636,482.341-0.73c1.76,1.85,68.022,98.77,70.174,100.089
		c0.003,0.003,68.299,48.616,68.299,48.616c3.813,2.798,9.547-0.42,9.047-5.164c-0.013-1.316-23.155-79.917-23.39-81.201
		C965.342,1059.448,893.355,957.877,892.326,955.817z M949.956,159.602c-2.5-3.142-16.483-20.712-18.636-23.419l16.116-21.723
		l26.527,4.009l3.957,29.817L949.956,159.602z M995.183,101.166l-4.585,31.059l-5.154,7.32l-3.226-24.311l9.192-23.37
		L995.183,101.166z M986.145,81.729l-11.089,28.199l-26.466-3.999L938.006,79.78l22.73-17.198L986.145,81.729z M913.587,69.697
		l27.006-10.935l9.245,1.272l-18.731,14.173l-23.299,2.864L913.587,69.697z M896.842,117.935l4.91-31.445l28.276-3.476l10.599,26.18
		l-16.096,21.692L896.842,117.935z M739.916,214.619l19.546-27.188c2.14,1.239,39.38,57.457,42.645,53.875
		c0.031,0.009,34.338,0.28,34.369,0.287c1.83,0,3.554-0.875,4.635-2.354l64.795-88.679l9.658,7.422l-62.702,89.766
		c-1.051,1.506-1.32,3.424-0.72,5.159l11.193,32.426c-2.503,4.194,62.934,21.705,64.581,23.275l-19.053,26.089
		c-3.792-12.631-52.258-48.233-75.173-64.003C809.813,252.888,757.587,214.738,739.916,214.619z M805.318,264.479
		c4.066,2.912,9.515,6.814,12.974,9.295l-23.379,33.603c-4.732-2.562-9.512-5.028-14.339-7.397L805.318,264.479z M420.642,299.393
		c-5.058,2.466-10.015,5.015-14.848,7.616l-23.035-33.963l13.006-9.309L420.642,299.393z M261.277,58.762l27.026,10.952l5.748,7.359
		l-23.285-2.865l-18.748-14.173L261.277,58.762z M241.111,62.582l22.752,17.198l-10.61,26.149l-26.435,3.998l-11.092-28.197
		L241.111,62.582z M216.428,139.563l-5.182-7.339l-4.559-31.054l3.775-9.304l9.195,23.369L216.428,139.563z M251.916,159.602
		l-27.964-11.316l3.96-29.819l26.496-4.007l16.143,21.724L251.916,159.602z M261.221,109.194l10.621-26.18l28.253,3.476
		l4.938,31.445l-27.694,12.953L261.221,109.194z M337.364,291.659c-23.518,16.949-38.058,31.98-43.527,44.981l-20.706-28.761
		c1.848-1.631,67.024-19.059,64.662-23.292c0-0.001,11.192-32.429,11.192-32.429c0.6-1.735,0.331-3.653-0.72-5.159l-62.105-88.911
		l9.669-7.441l64.186,87.845c1.082,1.48,2.805,2.353,4.635,2.353c0.022,0.033,34.308-0.31,34.34-0.287
		c3.178,3.708,40.66-52.814,42.674-53.877l20.529,28.56c-11.306,1.114-29.042,7.576-56.361,27.174
		c-0.364,0.27-12.208,8.803-12.156,8.478C377.01,262.99,353.922,279.756,337.364,291.659z M233.073,1111.264l12.917-44.589
		l71.045-101.866c4.07,3.889,8.194,7.677,12.375,11.356L233.073,1111.264z M361.49,987.516
		c-240.06-172.789-200.215-560.205,70.165-680.663c258.215-124.659,571.288,74.364,566.981,361.341
		C1002.413,991.753,618.413,1184.575,361.49,987.516z M871.514,975.492c4.255-3.76,8.45-7.574,12.527-11.489l71.068,101.925
		l13.477,46.555L871.514,975.492z" style="fill: rgb(0, 0, 0);"></path>
</g>
</svg>
